<?xml version="1.0" encoding="UTF-8"?>
<svg width="48" height="48" version="1.1" viewBox="0 0 12.7 12.7" xmlns="http://www.w3.org/2000/svg">
  <style>
    path {
      fill: #000000;
    }
    @media (prefers-color-scheme: dark) {
      path {
        fill: #66ccff;
      }
    }
  </style>
  <path transform="matrix(.26458 0 0 .26458 -7.4107 16.002)" d="m62.263-25.826v-13.242q0-4.9414-4.2773-4.9414-1.3477 0-2.5195 0.83984-1.1719 0.82031-1.6016 1.875v15.469h-3.7109v-14.863q0-1.543-1.1719-2.4219-1.1523-0.89844-3.0664-0.89844-1.1133 0-2.3828 0.85938-1.25 0.85938-1.7773 1.8945v15.43h-3.7109v-20.918h2.4219l1.2305 2.4219q2.1484-2.8125 5.3711-2.8125 4.4922 0 6.2891 2.793 0.625-1.1914 2.3242-1.9922 1.6992-0.80078 3.4961-0.80078 3.2422 0 5.0195 1.9336 1.7773 1.9141 1.7773 5.3906v13.984z" style="white-space:pre" aria-label="m"/>
</svg>
